<?xml version="1.0" standalone="no"?>
<!DOCTYPE svg PUBLIC "-//W3C//DTD SVG 20010904//EN"
 "http://www.w3.org/TR/2001/REC-SVG-20010904/DTD/svg10.dtd">
<svg version="1.0" xmlns="http://www.w3.org/2000/svg"
 width="512.000000pt" height="512.000000pt" viewBox="0 0 512.000000 512.000000"
 preserveAspectRatio="xMidYMid meet">
<metadata>
Created by potrace 1.14, written by Peter Selinger 2001-2017
</metadata>
<g transform="translate(0.000000,512.000000) scale(0.100000,-0.100000)"
fill="#000000" stroke="none">
<path d="M2455 4834 l-99 -196 -106 -77 c-358 -264 -697 -415 -1041 -466 -59
-8 -134 -15 -166 -15 l-60 0 -13 -62 c-23 -122 -94 -264 -172 -349 -43 -45
-122 -109 -137 -109 -19 0 -12 -19 27 -73 95 -130 182 -303 212 -420 18 -71
20 -238 6 -366 -3 -25 -8 -75 -11 -111 -3 -36 -8 -99 -12 -140 -14 -164 -8
-566 11 -665 2 -11 7 -40 11 -64 8 -51 56 -174 95 -245 87 -158 298 -396 480
-543 238 -192 558 -380 804 -474 l82 -31 94 -169 c52 -93 97 -169 100 -169 3
0 42 74 87 164 l83 163 107 43 c128 51 306 139 422 209 46 28 86 51 88 51 7 0
237 166 269 195 7 6 31 26 55 45 61 48 269 257 305 305 16 22 32 43 37 46 4 3
20 25 35 50 l28 44 -19 33 c-11 19 -15 32 -8 33 6 1 20 3 31 4 11 1 26 3 33 4
6 1 20 18 29 39 84 180 103 301 103 637 -1 175 -11 396 -20 447 -9 44 -19 225
-18 323 0 121 21 202 84 328 35 69 117 205 136 225 6 6 15 21 18 32 3 11 11
20 16 20 22 0 6 27 -26 44 -54 29 -129 106 -179 184 -25 39 -46 73 -46 75 0 3
-8 22 -17 43 -21 49 -20 46 -37 123 -8 35 -18 67 -23 71 -4 4 -51 10 -103 13
-155 10 -266 32 -437 89 l-122 40 -34 -21 -34 -21 -17 44 c-16 41 -24 48 -109
91 -166 86 -327 189 -467 301 -64 50 -66 54 -154 238 -50 102 -92 186 -95 186
-3 0 -51 -88 -106 -196z"/>
</g>
</svg>
